<svg version="1.1" xmlns="http://www.w3.org/2000/svg" xmlns:xlink="http://www.w3.org/1999/xlink" width="1em" height="1em" viewBox="0,0,256,256"><g transform="translate(25.6,25.6) scale(0.8,0.8)"><g fill="#a02bff" fill-rule="nonzero" stroke="none" stroke-width="1" stroke-linecap="butt" stroke-linejoin="miter" stroke-miterlimit="10" stroke-dasharray="" stroke-dashoffset="0" font-family="none" font-weight="none" font-size="none" text-anchor="none" style="mix-blend-mode: normal"><path d="M48,288c-44.18278,0 -80,-35.81722 -80,-80v-160c0,-44.18278 35.81722,-80 80,-80h160c44.18278,0 80,35.81722 80,80v160c0,44.18278 -35.81722,80 -80,80z" id="shape"></path></g><g fill="none" fill-rule="nonzero" stroke="none" stroke-width="1" stroke-linecap="butt" stroke-linejoin="miter" stroke-miterlimit="10" stroke-dasharray="" stroke-dashoffset="0" font-family="none" font-weight="none" font-size="none" text-anchor="none" style="mix-blend-mode: normal"><g transform="scale(10.66667,10.66667)"><rect x="0" y="0" width="24" height="24" fill="none"></rect><path d="M12,4c-1.933,0 -3.5,1.567 -3.5,3.5h2c0,-0.82843 0.67157,-1.5 1.5,-1.5c0.82843,0 1.5,0.67157 1.5,1.5c0,0.82843 -0.67157,1.5 -1.5,1.5c-0.55,0 -1,0.45 -1,1v1.75l-8.6,6.45c-0.34434,0.25826 -0.4848,0.70789 -0.34868,1.11623c0.13611,0.40834 0.51825,0.68377 0.94868,0.68377h18c0.43043,0 0.81257,-0.27543 0.94868,-0.68377c0.13611,-0.40834 -0.00434,-0.85797 -0.34868,-1.11623l-8.6,-6.45v-0.9c1.48186,-0.4418 2.49819,-1.80368 2.5,-3.35c0,-1.933 -1.567,-3.5 -3.5,-3.5M12,13.5l6,4.5h-12z" fill="#ffffff"></path></g></g></g></svg>