<svg version="1.1" xmlns="http://www.w3.org/2000/svg" xmlns:xlink="http://www.w3.org/1999/xlink" width="1em" height="1em" viewBox="0,0,256,256"><g transform="translate(25.6,25.6) scale(0.8,0.8)"><g fill="#a02bff" fill-rule="nonzero" stroke="none" stroke-width="1" stroke-linecap="butt" stroke-linejoin="miter" stroke-miterlimit="10" stroke-dasharray="" stroke-dashoffset="0" font-family="none" font-weight="none" font-size="none" text-anchor="none" style="mix-blend-mode: normal"><path d="M48,288c-44.18278,0 -80,-35.81722 -80,-80v-160c0,-44.18278 35.81722,-80 80,-80h160c44.18278,0 80,35.81722 80,80v160c0,44.18278 -35.81722,80 -80,80z" id="shape"></path></g><g fill="none" fill-rule="nonzero" stroke="none" stroke-width="1" stroke-linecap="butt" stroke-linejoin="miter" stroke-miterlimit="10" stroke-dasharray="" stroke-dashoffset="0" font-family="none" font-weight="none" font-size="none" text-anchor="none" style="mix-blend-mode: normal"><g transform="scale(10.66667,10.66667)"><rect x="0" y="0" width="24" height="24" fill="none"></rect><path d="M19,6h-2c0,-2.8 -2.2,-5 -5,-5c-2.8,0 -5,2.2 -5,5h-2c-1.1,0 -2,0.9 -2,2v12c0,1.1 0.9,2 2,2h14c1.1,0 2,-0.9 2,-2v-12c0,-1.1 -0.9,-2 -2,-2M12,3c1.7,0 3,1.3 3,3h-6c0,-1.7 1.3,-3 3,-3M19,20h-14v-12h14zM12,12c-1.7,0 -3,-1.3 -3,-3h-2c0,2.8 2.2,5 5,5c2.8,0 5,-2.2 5,-5h-2c0,1.7 -1.3,3 -3,3" fill="#ffffff"></path></g></g></g></svg>