<svg version="1.1" xmlns="http://www.w3.org/2000/svg" xmlns:xlink="http://www.w3.org/1999/xlink" width="1em" height="1em" viewBox="0,0,256,256"><g transform="translate(25.6,25.6) scale(0.8,0.8)"><g fill="#a02bff" fill-rule="nonzero" stroke="none" stroke-width="1" stroke-linecap="butt" stroke-linejoin="miter" stroke-miterlimit="10" stroke-dasharray="" stroke-dashoffset="0" font-family="none" font-weight="none" font-size="none" text-anchor="none" style="mix-blend-mode: normal"><path d="M48,288c-44.18278,0 -80,-35.81722 -80,-80v-160c0,-44.18278 35.81722,-80 80,-80h160c44.18278,0 80,35.81722 80,80v160c0,44.18278 -35.81722,80 -80,80z" id="shape"></path></g><g fill="none" fill-rule="nonzero" stroke="none" stroke-width="1" stroke-linecap="butt" stroke-linejoin="miter" stroke-miterlimit="10" stroke-dasharray="" stroke-dashoffset="0" font-family="none" font-weight="none" font-size="none" text-anchor="none" style="mix-blend-mode: normal"><g transform="scale(10.66667,10.66667)"><rect x="0" y="0" width="24" height="24" fill="none"></rect><path d="M2,7h20v3h-2l1,9h-2.5l-0.56,-5h-11.88l-0.56,5h-2.5l1,-9h-2zM17.5,10h-11l-0.21,2h11.42z" fill="#ffffff"></path></g></g></g></svg>