<svg version="1.1" xmlns="http://www.w3.org/2000/svg" xmlns:xlink="http://www.w3.org/1999/xlink" width="1em" height="1em" viewBox="0,0,256,256"><g transform="translate(25.6,25.6) scale(0.8,0.8)"><g fill="#a02bff" fill-rule="nonzero" stroke="none" stroke-width="1" stroke-linecap="butt" stroke-linejoin="miter" stroke-miterlimit="10" stroke-dasharray="" stroke-dashoffset="0" font-family="none" font-weight="none" font-size="none" text-anchor="none" style="mix-blend-mode: normal"><path d="M48,288c-44.18278,0 -80,-35.81722 -80,-80v-160c0,-44.18278 35.81722,-80 80,-80h160c44.18278,0 80,35.81722 80,80v160c0,44.18278 -35.81722,80 -80,80z" id="shape"></path></g><g fill="none" fill-rule="nonzero" stroke="none" stroke-width="1" stroke-linecap="butt" stroke-linejoin="miter" stroke-miterlimit="10" stroke-dasharray="" stroke-dashoffset="0" font-family="none" font-weight="none" font-size="none" text-anchor="none" style="mix-blend-mode: normal"><g transform="scale(8,8)"><rect x="0" y="0" width="32" height="32" fill="none"></rect><path d="M4.725,6.175c-0.0622,0.03958 -0.11988,0.08586 -0.172,0.138l-2.91,2.91c-0.84347,0.8451 -0.85149,2.21106 -0.018,3.066l0.019,0.02l0.09,0.099l0.346,0.374c0.3,0.323 0.731,0.788 1.263,1.354c1.36129,1.45035 2.73769,2.88643 4.129,4.308c3.168,3.233 6.973,6.932 9.24,8.456c2.553,1.724 4.873,2.695 6.567,3.236c0.848,0.27 1.538,0.434 2.025,0.53c0.24133,0.04802 0.48412,0.08837 0.728,0.121l0.035,0.004c0.675,0.107 1.272,0.126 1.803,0.015c0.52262,-0.10296 1.00231,-0.3604 1.377,-0.739l0.7,-0.7c0.052,-0.052 0.097,-0.109 0.136,-0.169c0.638,-0.57881 1.00129,-1.40057 1,-2.262c-0.117,-1.293 -1.337,-2.04 -2.417,-2.7c-0.54355,-0.26944 -1.02877,-0.64321 -1.428,-1.1l-0.795,-1.856h0.007c0.5799,0 1.05,-0.4701 1.05,-1.05c0,-0.5799 -0.4701,-1.05 -1.05,-1.05h-0.907l-0.644,-1.504c0.46888,-0.18601 0.73923,-0.67915 0.64388,-1.17448c-0.09535,-0.49533 -0.52946,-0.85287 -1.03388,-0.85152h-0.478l-0.532,-1.241c0.57133,-0.02484 1.01772,-0.50231 1.0041,-1.07401c-0.01362,-0.5717 -0.48224,-1.02738 -1.0541,-1.02499h-0.849l-0.411,-0.96c-0.062,-0.15 -0.1,-0.258 -0.132,-0.35c-0.13331,-0.43689 -0.38206,-0.8297 -0.72,-1.137l-0.52,-0.521c-0.23963,-0.23069 -0.52959,-0.40254 -0.847,-0.502v-0.45c-0.625,-1.885 -2.905,-2.542 -4.434,-1.395l-2.128,-2.17c0.38641,-0.38997 0.60145,-0.91788 0.59751,-1.46687c-0.00394,-0.54898 -0.22654,-1.07375 -0.61851,-1.45813c-1.21485,-1.21075 -3.18015,-1.21075 -4.395,0zM14.187,15.355l0.003,-0.745c0,-1.7 -0.66,-3.32 -1.84,-4.53l-4.31,-4.396l2.365,-2.368c0.21487,-0.21573 0.51226,-0.32842 0.81614,-0.30927c0.30387,0.01915 0.58477,0.16828 0.77086,0.40927c-0.79785,0.80204 -0.79785,2.09796 0,2.9l4.43,4.442c0.83162,0.8016 2.14838,0.8016 2.98,0l0.52,0.52c0.1219,0.09525 0.2082,0.22874 0.245,0.379l0.003,0.01c0.043,0.124 0.096,0.274 0.18,0.469l0.074,0.174h-0.944c-0.58,0 -1.05,0.47 -1.05,1.05c0.00596,0.57741 0.47259,1.04404 1.05,1.05h1.844l0.531,1.24h-0.785c-0.58,0 -1.05,0.47 -1.05,1.05c0.00596,0.57741 0.47259,1.04404 1.05,1.05h1.685l0.612,1.43h-0.977c-0.58,0 -1.05,0.47 -1.05,1.05c0,0.29 0.12,0.55 0.31,0.74c0.19,0.19 0.45,0.3 0.74,0.31h1.877l1.133,2.646c0.52324,0.87925 1.29932,1.58041 2.227,2.012l0.003,0.002c0.503,0.307 1.438,0.877 1.463,1.162c0,0.056 -0.055,0.227 -0.305,0.507c-1.70916,-0.21363 -3.3867,-0.63059 -4.997,-1.242c-2.942,-1.132 -5.983,-3.143 -7.118,-6.701l-0.001,-0.002c-0.405,-1.26 -1.318,-2.727 -2.376,-4.163c-0.0362,-0.04876 -0.07254,-0.09743 -0.109,-0.146M3.055,10.891c-0.05107,-0.06257 -0.05107,-0.15243 0,-0.215l2.235,-2.236c1.3488,1.32208 2.65934,2.68264 3.93,4.08c1.207,1.33 2.446,2.785 3.465,4.167c1.034,1.403 1.781,2.652 2.082,3.587c0.0463,0.14601 0.09564,0.29105 0.148,0.435l-11.858,-9.816z" fill="#ffffff"></path></g></g></g></svg>