<svg version="1.1" xmlns="http://www.w3.org/2000/svg" xmlns:xlink="http://www.w3.org/1999/xlink" width="16" height="16" viewBox="0,0,256,256"><g transform="translate(25.6,25.6) scale(0.8,0.8)"><g fill="#a02bff" fill-rule="nonzero" stroke="none" stroke-width="1" stroke-linecap="butt" stroke-linejoin="miter" stroke-miterlimit="10" stroke-dasharray="" stroke-dashoffset="0" font-family="none" font-weight="none" font-size="none" text-anchor="none" style="mix-blend-mode: normal"><path d="M48,288c-44.18278,0 -80,-35.81722 -80,-80v-160c0,-44.18278 35.81722,-80 80,-80h160c44.18278,0 80,35.81722 80,80v160c0,44.18278 -35.81722,80 -80,80z" id="shape"></path></g><g fill="#ffffff" fill-rule="nonzero" stroke="none" stroke-width="1" stroke-linecap="butt" stroke-linejoin="miter" stroke-miterlimit="10" stroke-dasharray="" stroke-dashoffset="0" font-family="none" font-weight="none" font-size="none" text-anchor="none" style="mix-blend-mode: normal"><g transform="translate(16,0) scale(16,16)"><path d="M6,0c0.27614,0 0.5,0.22386 0.5,0.5v2.5h3v-2.5c0,-0.27614 0.22386,-0.5 0.5,-0.5c0.27614,0 0.5,0.22386 0.5,0.5v2.5h1c0.27614,0 0.5,0.22386 0.5,0.5v3c0,1.933 -1.567,3.5 -3.5,3.5c-0.002,0.434 -0.01,0.845 -0.04,1.22c-0.041,0.514 -0.126,1.003 -0.317,1.424c-0.19364,0.44524 -0.53674,0.80886 -0.97,1.028c-0.448,0.228 -1.004,0.328 -1.673,0.328c-0.998,0 -1.61,0.33 -1.974,0.718c-0.32864,0.34706 -0.51617,0.80413 -0.526,1.282h-1c0,-0.616 0.232,-1.367 0.797,-1.968c0.577,-0.612 1.464,-1.032 2.703,-1.032c0.581,0 0.962,-0.088 1.218,-0.219c0.241,-0.123 0.4,-0.3 0.514,-0.55c0.121,-0.266 0.193,-0.621 0.23,-1.09c0.027,-0.34 0.035,-0.718 0.037,-1.141c-1.93261,-0.00055 -3.499,-1.56739 -3.499,-3.5v-3c0,-0.27614 0.22386,-0.5 0.5,-0.5h1v-2.5c0,-0.27614 0.22386,-0.5 0.5,-0.5zM5,4v2.5c0,1.38071 1.11929,2.5 2.5,2.5h1c1.38071,0 2.5,-1.11929 2.5,-2.5v-2.5z"></path></g></g></g></svg>