<svg width="300" height="300" viewBox="0 0 300 300" fill="none" xmlns="http://www.w3.org/2000/svg">
<g clip-path="url(#clip0_18_44)">
<path d="M86.7857 300C38.8553 300 0 266.421 0 225V75C0 33.5786 38.8553 0 86.7857 0H213.214C261.144 0 300 33.5786 300 75V225C300 266.421 261.144 300 213.214 300H86.7857Z" fill="#A02BFF"/>
<path opacity="0.3" d="M195.46 143H197.231L198.087 141.449L225.679 91.4495L228.135 87H223.052H101.586H96.8445L98.8749 91.2847L122.568 141.285L123.381 143H125.279H195.46Z" fill="white" stroke="black" stroke-width="6"/>
<path d="M229.95 177H115.057L122.755 163H195.46C204.071 163 211.667 158.287 215.584 151.145C215.585 151.144 215.585 151.143 215.586 151.142L251.367 86.2575C251.368 86.2558 251.369 86.2541 251.37 86.2523C252.465 84.2814 253.026 82.0589 252.999 79.8046C252.972 77.5482 252.356 75.338 251.213 73.3926C250.07 71.4472 248.439 69.834 246.48 68.7128C244.522 67.5915 242.306 67.0011 240.049 67H240.048H93.9935L85.4062 48.7242L84.5961 47H82.691H50H47V50V70V73H50H68.0968L102.614 145.795L89.8631 168.848L89.8584 168.857L89.8537 168.865C81.4811 184.238 92.4818 203 109.983 203H229.95H232.95V200V180V177H229.95ZM127.177 137L106.327 93H217.97L193.689 137H127.177ZM109.983 207C97.3093 207 87.089 217.364 87.089 230C87.089 242.636 97.3093 253 109.983 253C122.638 253 132.978 242.656 132.978 230C132.978 217.344 122.638 207 109.983 207ZM209.956 207C197.282 207 187.061 217.364 187.061 230C187.061 242.636 197.282 253 209.956 253C222.611 253 232.95 242.656 232.95 230C232.95 217.344 222.611 207 209.956 207Z" fill="white" stroke="black" stroke-width="6"/>
</g>
<defs>
<clipPath id="clip0_18_44">
<rect width="300" height="300" fill="white"/>
</clipPath>
</defs>
</svg>
